<?xml version="1.0" encoding="utf-8"?>
<!-- Generator: Adobe Illustrator 19.0.0, SVG Export Plug-In . SVG Version: 6.00 Build 0)  -->
<svg version="1.1" id="Calque_1" xmlns="http://www.w3.org/2000/svg" xmlns:xlink="http://www.w3.org/1999/xlink" x="0px" y="0px"
	 viewBox="-230.8 383.3 67.5 51.8" style="enable-background:new -230.8 383.3 67.5 51.8;" xml:space="preserve">
<path d="M-193.5,412.9c9.1,0.9,16.3,3.8,21.6,8.9c-3.1-9.2-11.5-20.4-31-20.6c-1.2,0-2.2-1-2.2-2.2v-7l-17.4,14.9l17.4,14.9v-7
	c0-1.2,1-2.2,2.2-2.2c1.2,0,2.2,1,2.2,2.2v11.8c0,0.9-0.5,1.7-1.3,2c-0.8,0.4-1.7,0.2-2.4-0.3l-23-19.7c-0.5-0.4-0.8-1-0.8-1.7
	s0.3-1.3,0.8-1.7l23.1-19.7c0.7-0.6,1.6-0.7,2.4-0.3c0.8,0.4,1.3,1.2,1.3,2v9.7c14.5,0.8,22.8,7.4,27.3,13c5.6,7,7.6,15.3,7.6,20.7
	c0,1-0.7,1.9-1.7,2.2c-0.2,0-0.4,0.1-0.6,0.1c-0.8,0-1.6-0.4-2-1.2c-4.7-8.6-12.3-13.1-23.9-14.3c-1.2-0.1-2.1-1.2-2-2.4
	C-195.8,413.7-194.7,412.8-193.5,412.9z"/>
</svg>
