<?xml version="1.0" encoding="utf-8"?>
<!-- Generator: Adobe Illustrator 19.0.0, SVG Export Plug-In . SVG Version: 6.00 Build 0)  -->
<svg version="1.1" id="Calque_1" xmlns="http://www.w3.org/2000/svg" xmlns:xlink="http://www.w3.org/1999/xlink" x="0px" y="0px"
	 width="420.2px" height="294.6px" viewBox="0 0 420.2 294.6" style="enable-background:new 0 0 420.2 294.6;" xml:space="preserve"
	>
<style type="text/css">
	.st0{fill:#FFFFFF;}
</style>
<path id="XMLID_48_" d="M358.2,148.5L333.7,169l-27.1,23.3c-1,0.9-2.3,1.3-3.5,1.3c-1.5,0-3-0.6-4.1-1.9c-1.9-2.3-1.7-5.7,0.6-7.6
	l25.8-22.2V37.7c0-14.8-8.7-28.3-22.2-34.4c-13.5-6.1-29.3-3.8-40.4,6l-250,219.2c-15.7,13.7-17.2,37.6-3.5,53.2
	c7.5,8.5,17.9,12.9,28.4,12.9c8.8,0,17.7-3.1,24.9-9.4l176.6-154.8V93.6c0-3,2.4-5.4,5.4-5.4s5.4,2.4,5.4,5.4V121v135.9
	c0,14.7,8.5,28,21.8,34.2c13.3,6.2,29,4.1,40.2-5.3l94.8-79.5c16-13.4,18.1-37.2,4.7-53.2C398,137.2,374.2,135.1,358.2,148.5z"/>
<path id="XMLID_47_" d="M-175.3,141.4c-1,0-1.9-0.4-2.6-1.2c-1.3-1.5-1.1-3.7,0.3-4.9l23.2-20.3c1-0.9,2.5-1.1,3.8-0.6
	c1.3,0.6,2.1,1.8,2.1,3.2v12.8l3-2.6c1.5-1.2,3.7-1,4.9,0.4c1.2,1.5,1,3.7-0.4,4.9l-8.8,7.4c-1,0.9-2.5,1.1-3.7,0.5
	c-1.2-0.6-2-1.8-2-3.2v-12.6l-17.4,15.2C-173.6,141.1-174.4,141.4-175.3,141.4z"/>
<path id="XMLID_46_" class="st0" d="M-150.6,132.1c-0.1,0-0.3-0.1-0.4-0.2c-0.2-0.2-0.2-0.5,0.1-0.7l33.8-29.1
	c0.2-0.2,0.5-0.2,0.7,0.1c0.2,0.2,0.2,0.5-0.1,0.7l-33.8,29.1C-150.4,132-150.5,132.1-150.6,132.1z"/>
<path id="XMLID_45_" class="st0" d="M-156.1,153.6c-0.3,0-0.5-0.2-0.5-0.5v-30.3c0-0.3,0.2-0.5,0.5-0.5s0.5,0.2,0.5,0.5v30.3
	C-155.6,153.4-155.8,153.6-156.1,153.6z"/>
</svg>
