<?xml version="1.0" encoding="utf-8"?>
<!-- Generator: Adobe Illustrator 19.0.0, SVG Export Plug-In . SVG Version: 6.00 Build 0)  -->
<svg version="1.1" xmlns="http://www.w3.org/2000/svg" xmlns:xlink="http://www.w3.org/1999/xlink" x="0px" y="0px" width="420.2px"
	 height="294.6px" viewBox="0 0 420.2 294.6" style="enable-background:new 0 0 420.2 294.6;" xml:space="preserve">
<style type="text/css">
	.st0{display:none;}
	.st1{display:inline;}
	.st2{display:inline;fill:#FFFFFF;}
</style>
<g id="Calque_1">
	<path id="XMLID_48_" d="M358.2,148.5L333.7,169l-27.1,23.3c-1,0.9-2.3,1.3-3.5,1.3c-1.5,0-3-0.6-4.1-1.9c-1.9-2.3-1.7-5.7,0.6-7.6
		l25.8-22.2V37.7c0-14.8-8.7-28.3-22.2-34.4c-13.5-6.1-29.3-3.8-40.4,6l-250,219.2c-15.7,13.7-17.2,37.6-3.5,53.2
		c7.5,8.5,17.9,12.9,28.4,12.9c8.8,0,17.7-3.1,24.9-9.4l176.6-154.8V93.6c0-3,2.4-5.4,5.4-5.4s5.4,2.4,5.4,5.4V121v135.9
		c0,14.7,8.5,28,21.8,34.2c13.3,6.2,29,4.1,40.2-5.3l94.8-79.5c16-13.4,18.1-37.2,4.7-53.2C398,137.2,374.2,135.1,358.2,148.5z"/>
</g>
<g id="Calque_2" class="st0">
	<path id="XMLID_72_" class="st1" d="M183.5,474.8l-9.8,8.2l-10.8,9.3c-0.4,0.3-0.9,0.5-1.4,0.5c-0.6,0-1.2-0.3-1.6-0.7
		c-0.8-0.9-0.7-2.3,0.2-3l10.3-8.9v-49.5c0-5.9-3.5-11.3-8.8-13.7c-5.4-2.4-11.7-1.5-16.1,2.4l-99.6,87.4c-6.2,5.5-6.9,15-1.4,21.2
		c3,3.4,7.1,5.1,11.3,5.1c3.5,0,7.1-1.2,9.9-3.7l70.4-61.7v-14.7c0-1.2,1-2.1,2.1-2.1c1.2,0,2.1,1,2.1,2.1v10.9V518
		c0,5.8,3.4,11.2,8.7,13.6c5.3,2.5,11.5,1.6,16-2.1l37.8-31.7c6.4-5.3,7.2-14.8,1.9-21.2C199.4,470.3,189.9,469.5,183.5,474.8z"/>
	<path id="XMLID_47_" class="st1" d="M-175.3,141.4c-1,0-1.9-0.4-2.6-1.2c-1.3-1.5-1.1-3.7,0.3-4.9l23.2-20.3c1-0.9,2.5-1.1,3.8-0.6
		c1.3,0.6,2.1,1.8,2.1,3.2v12.8l3-2.6c1.5-1.2,3.7-1,4.9,0.4c1.2,1.5,1,3.7-0.4,4.9l-8.8,7.4c-1,0.9-2.5,1.1-3.7,0.5
		c-1.2-0.6-2-1.8-2-3.2v-12.6l-17.4,15.2C-173.6,141.1-174.4,141.4-175.3,141.4z"/>
	<path id="XMLID_46_" class="st2" d="M-150.6,132.1c-0.1,0-0.3-0.1-0.4-0.2c-0.2-0.2-0.2-0.5,0.1-0.7l33.8-29.1
		c0.2-0.2,0.5-0.2,0.7,0.1c0.2,0.2,0.2,0.5-0.1,0.7l-33.8,29.1C-150.4,132-150.5,132.1-150.6,132.1z"/>
	<path id="XMLID_45_" class="st2" d="M-156.1,153.6c-0.3,0-0.5-0.2-0.5-0.5v-30.3c0-0.3,0.2-0.5,0.5-0.5s0.5,0.2,0.5,0.5v30.3
		C-155.6,153.4-155.8,153.6-156.1,153.6z"/>
	
		<text id="XMLID_109_" transform="matrix(1 0 0 1 236.2974 503.6272)" class="st1" style="font-family:'RegularSemibold-Regular'; font-size:72px;">Adrien Lapasset</text>
</g>
</svg>
