<?xml version="1.0" encoding="utf-8"?>
<!-- Generator: Adobe Illustrator 19.0.0, SVG Export Plug-In . SVG Version: 6.00 Build 0)  -->
<svg version="1.1" id="Calque_1" xmlns="http://www.w3.org/2000/svg" xmlns:xlink="http://www.w3.org/1999/xlink" x="0px" y="0px"
	 width="740px" height="167px" viewBox="0 0 740 167" style="enable-background:new 0 0 740 167;" xml:space="preserve">
<style type="text/css">
	.st0{fill:#FFFFFF;}
	.st1{font-family:'RegularSemibold-Regular';}
	.st2{font-size:72px;}
</style>
<path id="XMLID_48_" d="M343.7-246.1l-24.5,20.5l-27.1,23.3c-1,0.9-2.3,1.3-3.5,1.3c-1.5,0-3-0.6-4.1-1.9c-1.9-2.3-1.7-5.7,0.6-7.6
	l25.8-22.2v-124.2c0-14.8-8.7-28.3-22.2-34.4c-13.5-6.1-29.3-3.8-40.4,6l-250,219.2c-15.7,13.7-17.2,37.6-3.5,53.2
	c7.5,8.5,17.9,12.9,28.4,12.9c8.8,0,17.7-3.1,24.9-9.4l176.6-154.8V-301c0-3,2.4-5.4,5.4-5.4s5.4,2.4,5.4,5.4v27.4v135.9
	c0,14.7,8.5,28,21.8,34.2c13.3,6.2,29,4.1,40.2-5.3l94.8-79.5c16-13.4,18.1-37.2,4.7-53.2C383.5-257.4,359.7-259.5,343.7-246.1z"/>
<path id="XMLID_72_" d="M169,80.2l-9.8,8.2l-10.8,9.3c-0.4,0.3-0.9,0.5-1.4,0.5c-0.6,0-1.2-0.3-1.6-0.7c-0.8-0.9-0.7-2.3,0.2-3
	l10.3-8.9V36c0-5.9-3.5-11.3-8.8-13.7c-5.4-2.4-11.7-1.5-16.1,2.4l-99.6,87.4c-6.2,5.5-6.9,15-1.4,21.2c3,3.4,7.1,5.1,11.3,5.1
	c3.5,0,7.1-1.2,9.9-3.7L121.6,73V58.3c0-1.2,1-2.1,2.1-2.1s2.1,1,2.1,2.1v10.9v54.2c0,5.8,3.4,11.2,8.7,13.6
	c5.3,2.5,11.5,1.6,16-2.1l37.8-31.7c6.4-5.3,7.2-14.8,1.9-21.2C184.9,75.7,175.4,74.8,169,80.2z"/>
<path id="XMLID_47_" d="M-189.7-253.2c-1,0-1.9-0.4-2.6-1.2c-1.3-1.5-1.1-3.7,0.3-4.9l23.2-20.3c1-0.9,2.5-1.1,3.8-0.6
	c1.3,0.6,2.1,1.8,2.1,3.2v12.8l3-2.6c1.5-1.2,3.7-1,4.9,0.4c1.2,1.5,1,3.7-0.4,4.9l-8.8,7.4c-1,0.9-2.5,1.1-3.7,0.5
	c-1.2-0.6-2-1.8-2-3.2v-12.6l-17.4,15.2C-188.1-253.5-188.9-253.2-189.7-253.2z"/>
<path id="XMLID_46_" class="st0" d="M-165.1-262.6c-0.1,0-0.3-0.1-0.4-0.2c-0.2-0.2-0.2-0.5,0.1-0.7l33.8-29.1
	c0.2-0.2,0.5-0.2,0.7,0.1c0.2,0.2,0.2,0.5-0.1,0.7l-33.8,29.1C-164.9-262.6-165-262.6-165.1-262.6z"/>
<path id="XMLID_45_" class="st0" d="M-170.5-241.1c-0.3,0-0.5-0.2-0.5-0.5v-30.3c0-0.3,0.2-0.5,0.5-0.5s0.5,0.2,0.5,0.5v30.3
	C-170-241.3-170.3-241.1-170.5-241.1z"/>
<text id="XMLID_109_" transform="matrix(1 0 0 1 221.8224 108.9985)" class="st1 st2">Adrien Lapasset</text>
</svg>
