<?xml version="1.0" encoding="utf-8"?>
<!-- Generator: Adobe Illustrator 19.0.0, SVG Export Plug-In . SVG Version: 6.00 Build 0)  -->
<svg version="1.1" id="Calque_1" xmlns="http://www.w3.org/2000/svg" xmlns:xlink="http://www.w3.org/1999/xlink" x="0px" y="0px"
	 viewBox="-229.2 377.4 64.2 63.6" style="enable-background:new -229.2 377.4 64.2 63.6;" xml:space="preserve">
<path d="M-167,386.4l-20.3,49.4c-0.9,2.2-3,3.6-5.3,3.6c-0.1,0-0.1,0-0.2,0c-2.4-0.1-4.5-1.6-5.3-3.9l-4.6-13.5
	c-0.4-1.2,0.2-2.4,1.4-2.8c1.2-0.4,2.4,0.2,2.8,1.4l4.6,13.5c0.3,0.7,0.9,0.8,1.2,0.9c0.3,0,0.9-0.1,1.2-0.8l20.3-49.3
	c0.3-0.7-0.1-1.2-0.3-1.4c-0.2-0.2-0.7-0.6-1.4-0.3l-49.3,20.2c-0.7,0.3-0.8,0.9-0.8,1.2c0,0.3,0.1,0.9,0.9,1.2l15.7,5.4l20.3-17.3
	c0.9-0.8,2.4-0.7,3.2,0.3c0.8,0.9,0.7,2.4-0.3,3.2l-21.3,17.9c-0.6,0.5-1.4,0.7-2.2,0.4l-16.9-5.8c-2.3-0.8-3.8-2.8-3.9-5.3
	c-0.1-2.4,1.3-4.6,3.6-5.5l49.4-20.2c2.2-0.9,4.6-0.4,6.3,1.3C-166.6,381.8-166.1,384.2-167,386.4z"/>
</svg>
