<?xml version="1.0" encoding="utf-8"?>
<!-- Generator: Adobe Illustrator 19.0.0, SVG Export Plug-In . SVG Version: 6.00 Build 0)  -->
<svg version="1.1" id="Calque_1" xmlns="http://www.w3.org/2000/svg" xmlns:xlink="http://www.w3.org/1999/xlink" x="0px" y="0px"
	 viewBox="-228.4 380.8 63 56.2" style="enable-background:new -228.4 380.8 63 56.2;" xml:space="preserve">
<path fill="white" d="M-197,435.9c-2.4,0-4.8-0.2-7.1-0.7c-1.2-0.3-2-1.4-1.7-2.7c0.3-1.2,1.5-2,2.7-1.7c2,0.4,4.1,0.6,6.1,0.6
	c14.3,0,26-10.1,26-22.5c0-12.4-11.7-22.5-26-22.5s-26,10.1-26,22.5c0,5.1,2,10,5.7,14c0.6,0.6,0.7,1.5,0.5,2.3
	c-0.6,1.6-1.4,3.1-2.4,4.3c1.8-0.1,3.9-0.6,5.8-1.8c1.1-0.6,2.4-0.3,3.1,0.8c0.6,1.1,0.3,2.4-0.8,3.1c-4.7,2.8-9.7,2.6-12.2,2.3
	c-1.3-0.2-2.2-1.1-2.5-2.3s0.2-2.5,1.3-3.2c1.3-0.9,2.3-2,3.1-3.5c-3.8-4.6-5.9-10.2-5.9-15.9c0-14.9,13.7-27,30.4-27
	c16.8,0,30.4,12.1,30.4,27C-166.6,423.8-180.2,435.9-197,435.9z M-194.2,408.9c0-1.6-1.3-2.8-2.8-2.8s-2.8,1.3-2.8,2.8
	c0,1.6,1.3,2.8,2.8,2.8S-194.2,410.5-194.2,408.9z M-185.4,408.9c0-1.6-1.3-2.8-2.8-2.8s-2.8,1.2-2.8,2.8s1.3,2.8,2.8,2.8
	S-185.4,410.5-185.4,408.9z M-203,408.9c0-1.6-1.3-2.8-2.8-2.8s-2.8,1.3-2.8,2.8c0,1.6,1.3,2.8,2.8,2.8S-203,410.5-203,408.9z"/>
</svg>
