<?xml version="1.0" encoding="utf-8"?>
<!-- Generator: Adobe Illustrator 19.0.0, SVG Export Plug-In . SVG Version: 6.00 Build 0)  -->
<svg version="1.1" id="Calque_1" xmlns="http://www.w3.org/2000/svg" xmlns:xlink="http://www.w3.org/1999/xlink" x="0px" y="0px"
	 viewBox="-227.8 378.8 61.5 60" style="enable-background:new -227.8 378.8 61.5 60;" xml:space="preserve">
<path d="M-201.5,412.6c0.9,0.9,0.9,2.3,0,3.2l-2.8,2.8c-0.4,0.4-1,0.7-1.6,0.7c-0.6,0-1.1-0.2-1.6-0.7c-0.9-0.9-0.9-2.3,0-3.2
	l2.8-2.8C-203.8,411.8-202.4,411.8-201.5,412.6z M-191.9,380.9c-0.9-0.9-2.3-0.9-3.2,0c-0.9,0.9-0.9,2.3,0,3.2l22.3,22.3
	c0.5,0.5,0.7,1.1,0.7,1.7c0,0.6-0.3,1.3-0.7,1.7c-0.9,0.9-2.6,0.9-3.5,0l-7.9-7.9c-1.3-1.3-3.1-2-4.9-2c-1.9,0-3.6,0.7-4.9,2l-3,3
	c-2.3-1.6-5-2.5-7.9-2.5c-3.6,0-7,1.4-9.6,4l-8,8c-5.3,5.3-5.3,13.9,0,19.2c2.6,2.6,6,4,9.6,4s7-1.4,9.6-4l8-8
	c0.9-0.9,0.9-2.3,0-3.2c-0.9-0.9-2.3-0.9-3.2,0l-8,8c-1.7,1.7-4,2.7-6.4,2.7c-2.4,0-4.7-0.9-6.4-2.7c-3.5-3.5-3.5-9.3,0-12.8l8-8
	c3.5-3.5,9.3-3.5,12.8,0c0.9,0.9,2.3,0.9,3.2,0l4.5-4.5c0.9-0.9,2.6-0.9,3.5,0l7.9,7.9c2.7,2.7,7.1,2.7,9.8,0c1.3-1.3,2-3.1,2-4.9
	c0-1.8-0.7-3.6-2-4.9L-191.9,380.9z"/>
</svg>
