<svg xmlns="http://www.w3.org/2000/svg" xmlns:xlink="http://www.w3.org/1999/xlink" version="1.1" x="0px" y="0px" viewBox="0 0 100 125" enable-background="new 0 0 100 100" xml:space="preserve"><path d="M80,27.5L59.7,76.9c-0.9,2.2-3,3.6-5.3,3.6c-0.1,0-0.1,0-0.2,0c-2.4-0.1-4.5-1.6-5.3-3.9l-4.6-13.5  c-0.4-1.2,0.2-2.4,1.4-2.8c1.2-0.4,2.4,0.2,2.8,1.4l4.6,13.5c0.3,0.7,0.9,0.8,1.2,0.9c0.3,0,0.9-0.1,1.2-0.8l20.3-49.3  c0.3-0.7-0.1-1.2-0.3-1.4c-0.2-0.2-0.7-0.6-1.4-0.3L24.8,44.5c-0.7,0.3-0.8,0.9-0.8,1.2c0,0.3,0.1,0.9,0.9,1.2l15.7,5.4l20.3-17.3  c0.9-0.8,2.4-0.7,3.2,0.3c0.8,0.9,0.7,2.4-0.3,3.2L42.5,56.4c-0.6,0.5-1.4,0.7-2.2,0.4l-16.9-5.8c-2.3-0.8-3.8-2.8-3.9-5.3  c-0.1-2.4,1.3-4.6,3.6-5.5L72.5,20c2.2-0.9,4.6-0.4,6.3,1.3C80.4,22.9,80.9,25.3,80,27.5z"/><text x="0" y="115" fill="#000000" font-size="5px" font-weight="bold" font-family="'Helvetica Neue', Helvetica, Arial-Unicode, Arial, Sans-serif">Created by Gregor Cresnar</text><text x="0" y="120" fill="#000000" font-size="5px" font-weight="bold" font-family="'Helvetica Neue', Helvetica, Arial-Unicode, Arial, Sans-serif">from the Noun Project</text></svg>